#!OML:ASF H:\Punching\Project 1\Capture day 1\Session 1\female.ASF
:FULLY-SPECIFIED
:DEGREES
2326
root 2.38779 14.5717 0.833787 22.8867 8.11688 6.41169
lowerback -1.39813 -3.01967 -2.40179
upperback -7.67891 -4.19663 -1.18626
thorax -7.14401 -1.97665 0.298271
lowerneck -15.8659 2.9638 5.43848
upperneck 29.6964 4.29399 -5.03712
head 12.75 1.85991 -2.20589
rclavicle 9.65969e-016 2.11706e-014
rhumerus 23.9191 10.7791 -51.7805
rradius 129.951
rwrist -18.2382
rhand -29.9597 10.7729
rfingers 7.12502
rthumb -3.27852 -19.1816
lclavicle 9.65969e-016 2.11706e-014
lhumerus 6.17764 -23.7183 68.6682
lradius 137.702
lwrist 0.783807
lhand -25.2667 1.40812
lfingers 7.12502
lthumb 1.254 31.3842
rfemur -64.7478 -13.3497 18.6452
rtibia 59.1153
rfoot -14.5365 -29.024
rtoes 21.861
lfemur -4.1679 -18.0179 -9.16868
ltibia 23.2919
lfoot -20.5752 29.7146
ltoes -10.3561
2327
root 2.45626 14.5523 0.753266 23.0111 8.33612 6.18424
lowerback -1.33289 -2.91599 -2.13057
upperback -7.64696 -4.04225 -1.04459
thorax -7.15624 -1.91151 0.29173
lowerneck -15.95 2.81752 5.3496
upperneck 29.3627 4.09403 -5.05269
head 12.6155 1.75925 -2.22152
rclavicle -1.14674e-014 4.77083e-015
rhumerus 24.0567 10.5036 -51.8354
rradius 129.902
rwrist -18.3641
rhand -29.9624 10.7969
rfingers 7.12502
rthumb -3.28118 -19.1576
lclavicle -1.14674e-014 4.77083e-015
lhumerus 6.50578 -23.7536 68.5497
lradius 137.658
lwrist 0.933845
lhand -25.267 1.25915
lfingers 7.12502
lthumb 1.25366 31.2352
rfemur -65.1616 -13.6147 18.7363
rtibia 58.9622
rfoot -14.0783 -28.926
rtoes 21.8705
lfemur -4.49926 -17.2455 -9.16392
ltibia 23.3333
lfoot -21.8573 29.5334
ltoes -10.954
2328
root 2.52664 14.5317 0.672589 23.082 8.49775 5.96453
lowerback -1.25126 -2.79853 -1.87565
upperback -7.60296 -3.87025 -0.913688
thorax -7.16455 -1.83703 0.282257
lowerneck -16.0136 2.67815 5.28172
upperneck 29.0367 3.90723 -5.09193
head 12.4829 1.66382 -2.24783
rclavicle 1.00138e-014 -5.1684e-015
rhumerus 24.2032 10.2527 -51.9114
rradius 129.844
rwrist -18.515
rhand -29.9656 10.8682
rfingers 7.12502
rthumb -3.28421 -19.0862
lclavicle 1.00138e-014 -5.1684e-015
lhumerus 6.79934 -23.771 68.4293
lradius 137.62
lwrist 1.08548
lhand -25.2563 1.1274
lfingers 7.12502
lthumb 1.26403 31.1034
rfemur -65.527 -13.8648 18.8022
rtibia 58.8011
rfoot -13.6059 -28.7981
rtoes 21.9179
lfemur -4.69816 -16.7157 -9.24697
ltibia 23.3356
lfoot -23.2737 29.4879
ltoes -11.0137
2329
root 2.59829 14.5105 0.592295 23.1114 8.59314 5.76312
lowerback -1.16198 -2.66658 -1.65723
upperback -7.55204 -3.68019 -0.795303
thorax -7.16828 -1.75174 0.278779
lowerneck -16.0569 2.54407 5.23498
upperneck 28.7253 3.73187 -5.15696
head 12.3549 1.5726 -2.28594
rclavicle 1.68843e-014 7.15625e-015
rhumerus 24.3486 10.0291 -52.0123
rradius 129.775
rwrist -18.652
rhand -29.9599 10.9233
rfingers 7.12502
rthumb -3.27872 -19.0312
lclavicle 1.68843e-014 7.15625e-015
lhumerus 7.06097 -23.7763 68.3131
lradius 137.587
lwrist 1.22962
lhand -25.2352 1.02043
lfingers 7.12502
lthumb 1.28438 30.9963
rfemur -65.8544 -14.0834 18.8253
rtibia 58.6367
rfoot -13.1297 -28.6457
rtoes 22.0189
lfemur -4.79778 -16.4763 -9.41433
ltibia 23.293
lfoot -24.7669 29.6123
ltoes -10.7976
2330
root 2.67095 14.4887 0.513258 23.0959 8.63179 5.57959
lowerback -1.06129 -2.52516 -1.47706
upperback -7.49747 -3.47887 -0.68506
thorax -7.17278 -1.6587 0.287404
lowerneck -16.0781 2.41612 5.20425
upperneck 28.4358 3.56904 -5.24201
head 12.2335 1.48629 -2.33262
rclavicle -5.71506e-015 -1.2921e-014
rhumerus 24.4822 9.84223 -52.1383
rradius 129.693
rwrist -18.7353
rhand -29.9524 10.9653
rfingers 7.12502
rthumb -3.27153 -18.9894
lclavicle -5.71506e-015 -1.2921e-014
lhumerus 7.26808 -23.7696 68.2213
lradius 137.557
lwrist 1.35921
lhand -25.2071 0.914359
lfingers 7.12502
lthumb 1.31151 30.8901
rfemur -66.1334 -14.2766 18.806
rtibia 58.4721
rfoot -12.6674 -28.4653
rtoes 22.1676
lfemur -4.80992 -16.4898 -9.65278
ltibia 23.2136
lfoot -26.3457 29.8683
ltoes -10.3261
2331
root 2.7442 14.4665 0.435896 23.0404 8.61832 5.41864
lowerback -0.956619 -2.37786 -1.34236
upperback -7.43822 -3.27121 -0.58326
thorax -7.1724 -1.56 0.311639
lowerneck -16.0828 2.29346 5.18508
upperneck 28.1705 3.41533 -5.3369
head 12.1199 1.40412 -2.38372
rclavicle 3.77691e-015 -5.56597e-015
rhumerus 24.5983 9.69173 -52.2914
rradius 129.595
rwrist -18.734
rhand -29.9497 11.0138
rfingers 7.12502
rthumb -3.26888 -18.9409
lclavicle 3.77691e-015 -5.56597e-015
lhumerus 7.41868 -23.7624 68.1583
lradius 137.539
lwrist 1.46788
lhand -25.1733 0.823996
lfingers 7.12502
lthumb 1.34422 30.7995
rfemur -66.3664 -14.4468 18.7412
rtibia 58.3114
rfoot -12.2318 -28.2554
rtoes 22.343
lfemur -4.74919 -16.6973 -9.95582
ltibia 23.1111
lfoot -27.9979 30.1973
ltoes -9.58682
2332
root 2.81747 14.4441 0.360423 22.9509 8.56332 5.27785
lowerback -0.841612 -2.22917 -1.25239
upperback -7.38087 -3.06346 -0.486935
thorax -7.1781 -1.4586 0.35499
lowerneck -16.0777 2.17819 5.17412
upperneck 27.9343 3.27075 -5.42925
head 12.0171 1.32723 -2.43405
rclavicle 4.17448e-015 -2.28602e-014
rhumerus 24.6871 9.58085 -52.4701
rradius 129.486
rwrist -18.6396
rhand -29.9608 11.0794
rfingers 7.12502
rthumb -3.27964 -18.8751
lclavicle 4.17448e-015 -2.28602e-014
lhumerus 7.51737 -23.7463 68.1282
lradius 137.517
lwrist 1.57846
lhand -25.1385 0.67813
lfingers 7.12502
lthumb 1.3778 30.6534
rfemur -66.557 -14.5948 18.6365
rtibia 58.1576
rfoot -11.8348 -28.0238
rtoes 22.5365
lfemur -4.63466 -17.0577 -10.3054
ltibia 22.9981
lfoot -29.6251 30.6008
ltoes -8.87361
2333
root 2.89026 14.4218 0.287142 22.837 8.48688 5.16492
lowerback -0.726761 -2.08685 -1.21001
upperback -7.32442 -2.86607 -0.397068
thorax -7.18291 -1.35965 0.418094
lowerneck -16.0626 2.07098 5.17375
upperneck 27.7194 3.13386 -5.5146
head 11.9216 1.25581 -2.48247
rclavicle 2.14687e-014 -8.34896e-015
rhumerus 24.7523 9.50735 -52.6739
rradius 129.365
rwrist -18.4641
rhand -29.9709 11.1086
rfingers 7.12502
rthumb -3.28935 -18.8458
lclavicle 2.14687e-014 -8.34896e-015
lhumerus 7.57294 -23.7339 68.1252
lradius 137.506
lwrist 1.69268
lhand -25.1022 0.531591
lfingers 7.12502
lthumb 1.41289 30.5067
rfemur -66.7109 -14.7362 18.4911
rtibia 58.0168
rfoot -11.4882 -27.7766
rtoes 22.7429
lfemur -4.4907 -17.5087 -10.6891
ltibia 22.885
lfoot -31.166 31.0456
ltoes -8.31186
2334
root 2.96198 14.3997 0.216104 22.7159 8.39953 5.0834
lowerback -0.626476 -1.95407 -1.21624
upperback -7.27061 -2.68334 -0.314736
thorax -7.18066 -1.26535 0.50022
lowerneck -16.0423 1.97026 5.1757
upperneck 27.519 2.99999 -5.57867
head 11.8309 1.18862 -2.52276
rclavicle 1.33186e-014 5.96354e-015
rhumerus 24.7968 9.46935 -52.8984
rradius 129.236
rwrist -18.236
rhand -29.9914 11.1493
rfingers 7.12502
rthumb -3.3092 -18.8048
lclavicle 1.33186e-014 5.96354e-015
lhumerus 7.59797 -23.7264 68.1407
lradius 137.503
lwrist 1.81542
lhand -25.069 0.382814
lfingers 7.12502
lthumb 1.44495 30.3577
rfemur -66.8449 -14.8712 18.3055
rtibia 57.8925
rfoot -11.2012 -27.5329
rtoes 22.9335
lfemur -4.34283 -17.9743 -11.0958
ltibia 22.7748
lfoot -32.6159 31.464
ltoes -7.84585
2335
root 3.03177 14.3782 0.147331 22.6115 8.31378 5.04702
lowerback -0.55239 -1.83474 -1.2798
upperback -7.23077 -2.52117 -0.245279
thorax -7.17695 -1.17823 0.600987
lowerneck -16.0092 1.87416 5.18247
upperneck 27.3298 2.86571 -5.6202
head 11.742 1.12463 -2.5554
rclavicle 2.48978e-014 1.19271e-015
rhumerus 24.8073 9.46891 -53.1424
rradius 129.111
rwrist -17.9995
rhand -30.014 11.1479
rfingers 7.12502
rthumb -3.33102 -18.8058
lclavicle 2.48978e-014 1.19271e-015
lhumerus 7.61311 -23.7338 68.157
lradius 137.518
lwrist 1.95204
lhand -25.0406 0.263928
lfingers 7.12502
lthumb 1.47232 30.2386
rfemur -66.9825 -15.0051 18.0712
rtibia 57.7905
rfoot -11.0014 -27.3077
rtoes 23.0803
lfemur -4.22583 -18.3918 -11.5238
ltibia 22.6667
lfoot -33.949 31.8291
ltoes -7.46961
2336
root 3.09915 14.3578 0.0809789 22.5316 8.25173 5.05742
lowerback -0.519913 -1.73358 -1.39327
upperback -7.19714 -2.38535 -0.188891
thorax -7.15487 -1.10183 0.715899
lowerneck -15.9767 1.78143 5.18596
upperneck 27.1451 2.72921 -5.63386
head 11.6547 1.06264 -2.57719
rclavicle 3.42904e-015 -4.37326e-015
rhumerus 24.7939 9.49588 -53.398
rradius 128.999
rwrist -17.7962
rhand -30.0433 11.1345
rfingers 7.12502
rthumb -3.35923 -18.8188
lclavicle 3.42904e-015 -4.37326e-015
lhumerus 7.63257 -23.7477 68.1705
lradius 137.544
lwrist 2.09358
lhand -25.017 0.158849
lfingers 7.12502
lthumb 1.49519 30.1334
rfemur -67.1249 -15.1485 17.7908
rtibia 57.7134
rfoot -10.939 -27.1096
rtoes 23.0908
lfemur -4.15649 -18.7371 -11.9627
ltibia 22.563
lfoot -35.1871 32.1068
ltoes -7.04781
2337
root 3.16351 14.3391 0.0171535 22.4872 8.23302 5.12459
lowerback -0.530804 -1.65368 -1.55546
upperback -7.17603 -2.2802 -0.150308
thorax -7.12039 -1.03846 0.839889
lowerneck -15.9441 1.68831 5.1835
upperneck 26.9695 2.5867 -5.62097
head 11.5703 1.00049 -2.58889
rclavicle 2.14687e-014 2.38542e-014
rhumerus 24.7445 9.54678 -53.6591
rradius 128.912
rwrist -17.6606
rhand -30.0736 11.0884
rfingers 7.12502
rthumb -3.38854 -18.8644
lclavicle 2.14687e-014 2.38542e-014
lhumerus 7.67033 -23.7696 68.1742
lradius 137.571
lwrist 2.23656
lhand -25.0046 0.0386012
lfingers 7.12502
lthumb 1.50709 30.013
rfemur -67.2754 -15.315 17.4585
rtibia 57.6637
rfoot -11.0498 -26.941
rtoes 22.956
lfemur -4.15851 -19.0181 -12.4108
ltibia 22.4673
lfoot -36.3095 32.3297
ltoes -6.57391
2338
root 3.22478 14.3223 -0.0440106 22.4829 8.27023 5.24028
lowerback -0.593248 -1.59583 -1.74818
upperback -7.16552 -2.20555 -0.127791
thorax -7.06714 -0.989209 0.964453
lowerneck -15.9186 1.59341 5.17609
upperneck 26.8031 2.4387 -5.59184
head 11.4907 0.937143 -2.59452
rclavicle -3.97569e-016 4.37326e-015
rhumerus 24.6638 9.61557 -53.9159
rradius 128.857
rwrist -17.6158
rhand -30.1059 11.0271
rfingers 7.12502
rthumb -3.41975 -18.9252
lclavicle -3.97569e-016 4.37326e-015
lhumerus 7.7402 -23.7826 68.1701
lradius 137.587
lwrist 2.37627
lhand -24.9963 -0.139957
lfingers 7.12502
lthumb 1.51518 29.8344
rfemur -67.4334 -15.5118 17.0879
rtibia 57.6383
rfoot -11.3616 -26.7962
rtoes 22.6485
lfemur -4.24088 -19.2516 -12.8549
ltibia 22.3856
lfoot -37.3229 32.5113
ltoes -6.01595
